<svg width="248" height="212" viewBox="0 0 248 212" fill="none" xmlns="http://www.w3.org/2000/svg">
<g clip-path="url(#clip0_3_13)">
<rect width="247.333" height="212" rx="17.0575" fill="black"/>
<mask id="path-2-outside-1_3_13" maskUnits="userSpaceOnUse" x="177.099" y="117.671" width="82" height="100" fill="black">
<rect fill="white" x="177.099" y="117.671" width="82" height="100"/>
<path d="M181.099 214.015V121.671H200.207V156.879H236.292V121.671H255.462V214.015H236.292V172.792H200.207V214.015H181.099Z"/>
</mask>
<path d="M181.099 214.015V121.671H200.207V156.879H236.292V121.671H255.462V214.015H236.292V172.792H200.207V214.015H181.099Z" fill="white"/>
<path d="M181.099 214.015V121.671H200.207V156.879H236.292V121.671H255.462V214.015H236.292V172.792H200.207V214.015H181.099Z" stroke="black" stroke-width="6.09195" mask="url(#path-2-outside-1_3_13)"/>
<mask id="path-3-outside-2_3_13" maskUnits="userSpaceOnUse" x="-10.2239" y="117.671" width="73" height="100" fill="black">
<rect fill="white" x="-10.2239" y="117.671" width="73" height="100"/>
<path d="M-6.22391 121.671H13.0717V197.413H58.8048V214.015H-6.22391V121.671Z"/>
</mask>
<path d="M-6.22391 121.671H13.0717V197.413H58.8048V214.015H-6.22391V121.671Z" fill="white"/>
<path d="M-6.22391 121.671H13.0717V197.413H58.8048V214.015H-6.22391V121.671Z" stroke="black" stroke-width="6.09195" mask="url(#path-3-outside-2_3_13)"/>
<mask id="path-4-outside-3_3_13" maskUnits="userSpaceOnUse" x="110.293" y="114.977" width="83" height="105" fill="black">
<rect fill="white" x="110.293" y="114.977" width="83" height="105"/>
<path d="M132.712 185.51C133.297 189.728 134.445 192.881 136.158 194.97C139.29 198.77 144.657 200.67 152.258 200.67C156.811 200.67 160.507 200.169 163.347 199.167C168.735 197.246 171.429 193.675 171.429 188.454C171.429 185.405 170.092 183.045 167.419 181.375C164.746 179.746 160.549 178.305 154.827 177.052L145.054 174.859C135.448 172.688 128.807 170.328 125.132 167.78C118.909 163.52 115.797 156.859 115.797 147.795C115.797 139.526 118.804 132.656 124.818 127.184C130.833 121.713 139.666 118.977 151.319 118.977C161.05 118.977 169.34 121.567 176.19 126.746C183.081 131.883 186.694 139.359 187.028 149.174H168.484C168.15 143.619 165.728 139.672 161.217 137.333C158.21 135.788 154.472 135.015 150.003 135.015C145.033 135.015 141.065 136.018 138.1 138.022C135.134 140.027 133.652 142.825 133.652 146.417C133.652 149.717 135.114 152.181 138.037 153.81C139.917 154.896 143.926 156.169 150.066 157.631L165.978 161.453C172.953 163.123 178.215 165.358 181.766 168.156C187.279 172.5 190.035 178.785 190.035 187.013C190.035 195.45 186.798 202.466 180.325 208.063C173.893 213.618 164.788 216.395 153.01 216.395C140.982 216.395 131.522 213.66 124.63 208.188C117.739 202.675 114.293 195.116 114.293 185.51H132.712Z"/>
</mask>
<path d="M132.712 185.51C133.297 189.728 134.445 192.881 136.158 194.97C139.29 198.77 144.657 200.67 152.258 200.67C156.811 200.67 160.507 200.169 163.347 199.167C168.735 197.246 171.429 193.675 171.429 188.454C171.429 185.405 170.092 183.045 167.419 181.375C164.746 179.746 160.549 178.305 154.827 177.052L145.054 174.859C135.448 172.688 128.807 170.328 125.132 167.78C118.909 163.52 115.797 156.859 115.797 147.795C115.797 139.526 118.804 132.656 124.818 127.184C130.833 121.713 139.666 118.977 151.319 118.977C161.05 118.977 169.34 121.567 176.19 126.746C183.081 131.883 186.694 139.359 187.028 149.174H168.484C168.15 143.619 165.728 139.672 161.217 137.333C158.21 135.788 154.472 135.015 150.003 135.015C145.033 135.015 141.065 136.018 138.1 138.022C135.134 140.027 133.652 142.825 133.652 146.417C133.652 149.717 135.114 152.181 138.037 153.81C139.917 154.896 143.926 156.169 150.066 157.631L165.978 161.453C172.953 163.123 178.215 165.358 181.766 168.156C187.279 172.5 190.035 178.785 190.035 187.013C190.035 195.45 186.798 202.466 180.325 208.063C173.893 213.618 164.788 216.395 153.01 216.395C140.982 216.395 131.522 213.66 124.63 208.188C117.739 202.675 114.293 195.116 114.293 185.51H132.712Z" fill="white"/>
<path d="M132.712 185.51C133.297 189.728 134.445 192.881 136.158 194.97C139.29 198.77 144.657 200.67 152.258 200.67C156.811 200.67 160.507 200.169 163.347 199.167C168.735 197.246 171.429 193.675 171.429 188.454C171.429 185.405 170.092 183.045 167.419 181.375C164.746 179.746 160.549 178.305 154.827 177.052L145.054 174.859C135.448 172.688 128.807 170.328 125.132 167.78C118.909 163.52 115.797 156.859 115.797 147.795C115.797 139.526 118.804 132.656 124.818 127.184C130.833 121.713 139.666 118.977 151.319 118.977C161.05 118.977 169.34 121.567 176.19 126.746C183.081 131.883 186.694 139.359 187.028 149.174H168.484C168.15 143.619 165.728 139.672 161.217 137.333C158.21 135.788 154.472 135.015 150.003 135.015C145.033 135.015 141.065 136.018 138.1 138.022C135.134 140.027 133.652 142.825 133.652 146.417C133.652 149.717 135.114 152.181 138.037 153.81C139.917 154.896 143.926 156.169 150.066 157.631L165.978 161.453C172.953 163.123 178.215 165.358 181.766 168.156C187.279 172.5 190.035 178.785 190.035 187.013C190.035 195.45 186.798 202.466 180.325 208.063C173.893 213.618 164.788 216.395 153.01 216.395C140.982 216.395 131.522 213.66 124.63 208.188C117.739 202.675 114.293 195.116 114.293 185.51H132.712Z" stroke="black" stroke-width="6.09195" mask="url(#path-4-outside-3_3_13)"/>
<mask id="path-5-outside-4_3_13" maskUnits="userSpaceOnUse" x="37.6015" y="117.671" width="97" height="100" fill="black">
<rect fill="white" x="37.6015" y="117.671" width="97" height="100"/>
<path d="M74.3641 179.12H97.7945L86.2672 142.784L74.3641 179.12ZM75.5544 121.671H97.356L130.058 214.015H109.134L103.182 195.032H69.1643L62.7742 214.015H42.6015L75.5544 121.671Z"/>
</mask>
<path d="M74.3641 179.12H97.7945L86.2672 142.784L74.3641 179.12ZM75.5544 121.671H97.356L130.058 214.015H109.134L103.182 195.032H69.1643L62.7742 214.015H42.6015L75.5544 121.671Z" fill="white"/>
<path d="M74.3641 179.12H97.7945L86.2672 142.784L74.3641 179.12ZM75.5544 121.671H97.356L130.058 214.015H109.134L103.182 195.032H69.1643L62.7742 214.015H42.6015L75.5544 121.671Z" stroke="black" stroke-width="6.09195" mask="url(#path-5-outside-4_3_13)"/>
<mask id="path-6-outside-5_3_13" maskUnits="userSpaceOnUse" x="171.248" y="-7.68179" width="88" height="122" fill="black">
<rect fill="white" x="171.248" y="-7.68179" width="88" height="122"/>
<path d="M175.248 -3.68179H254.985V16.2669H198.597V42.3774H247.965V62.0951H198.597V109.695H175.248V-3.68179Z"/>
</mask>
<path d="M175.248 -3.68179H254.985V16.2669H198.597V42.3774H247.965V62.0951H198.597V109.695H175.248V-3.68179Z" fill="white"/>
<path d="M175.248 -3.68179H254.985V16.2669H198.597V42.3774H247.965V62.0951H198.597V109.695H175.248V-3.68179Z" stroke="black" stroke-width="7.31034" mask="url(#path-6-outside-5_3_13)"/>
<mask id="path-7-outside-6_3_13" maskUnits="userSpaceOnUse" x="153.805" y="-7.68179" width="32" height="122" fill="black">
<rect fill="white" x="153.805" y="-7.68179" width="32" height="122"/>
<path d="M181.477 109.695H157.805V-3.68179H181.477V109.695Z"/>
</mask>
<path d="M181.477 109.695H157.805V-3.68179H181.477V109.695Z" fill="white"/>
<path d="M181.477 109.695H157.805V-3.68179H181.477V109.695Z" stroke="black" stroke-width="7.31034" mask="url(#path-7-outside-6_3_13)"/>
<mask id="path-8-outside-7_3_13" maskUnits="userSpaceOnUse" x="60.8551" y="-7.68179" width="119" height="122" fill="black">
<rect fill="white" x="60.8551" y="-7.68179" width="119" height="122"/>
<path d="M105.769 66.8516H134.474L120.352 22.2394L105.769 66.8516ZM107.227 -3.68179H133.937L174.002 109.695H148.367L141.075 86.3887H99.3983L91.5695 109.695H66.8551L107.227 -3.68179Z"/>
</mask>
<path d="M105.769 66.8516H134.474L120.352 22.2394L105.769 66.8516ZM107.227 -3.68179H133.937L174.002 109.695H148.367L141.075 86.3887H99.3983L91.5695 109.695H66.8551L107.227 -3.68179Z" fill="white"/>
<path d="M105.769 66.8516H134.474L120.352 22.2394L105.769 66.8516ZM107.227 -3.68179H133.937L174.002 109.695H148.367L141.075 86.3887H99.3983L91.5695 109.695H66.8551L107.227 -3.68179Z" stroke="black" stroke-width="7.31034" mask="url(#path-8-outside-7_3_13)"/>
<mask id="path-9-outside-8_3_13" maskUnits="userSpaceOnUse" x="-10.6528" y="-10.1736" width="100" height="127" fill="black">
<rect fill="white" x="-10.6528" y="-10.1736" width="100" height="127"/>
<path d="M15.7672 74.6614C16.4789 79.7865 17.877 83.6177 19.9614 86.1549C23.7743 90.7726 30.3071 93.0814 39.5597 93.0814C45.1012 93.0814 49.6004 92.4725 53.0575 91.2547C59.6157 88.9204 62.8948 84.5818 62.8948 78.2389C62.8948 74.5346 61.268 71.6675 58.0143 69.6378C54.7606 67.6588 49.6513 65.9081 42.6863 64.3858L30.79 61.7217C19.0971 59.083 11.0137 56.216 6.5399 53.1206C-1.03509 47.9448 -4.82259 39.8511 -4.82259 28.8397C-4.82259 18.7924 -1.16219 10.445 6.15861 3.79757C13.4794 -2.84987 24.2318 -6.1736 38.4159 -6.1736C50.2613 -6.1736 60.3529 -3.02748 68.6904 3.26476C77.0788 9.50626 81.4764 18.5894 81.8831 30.5142H59.3107C58.9039 23.7653 55.9553 18.97 50.4647 16.1283C46.8043 14.2508 42.2542 13.3121 36.8144 13.3121C30.7646 13.3121 25.9349 14.5299 22.3254 16.9656C18.7158 19.4013 16.911 22.8012 16.911 27.1651C16.911 31.1739 18.6904 34.1678 22.2491 36.1468C24.5369 37.4661 29.4174 39.0138 36.8907 40.7899L56.2603 45.4329C64.7504 47.4627 71.1561 50.1775 75.4774 53.5773C82.1881 58.8547 85.5435 66.4916 85.5435 76.4882C85.5435 86.7385 81.6035 95.2634 73.7235 102.063C65.8943 108.812 54.8114 112.187 40.4748 112.187C25.8333 112.187 14.3182 108.863 5.92984 102.215C-2.45858 95.5172 -6.65279 86.3325 -6.65279 74.6614H15.7672Z"/>
</mask>
<path d="M15.7672 74.6614C16.4789 79.7865 17.877 83.6177 19.9614 86.1549C23.7743 90.7726 30.3071 93.0814 39.5597 93.0814C45.1012 93.0814 49.6004 92.4725 53.0575 91.2547C59.6157 88.9204 62.8948 84.5818 62.8948 78.2389C62.8948 74.5346 61.268 71.6675 58.0143 69.6378C54.7606 67.6588 49.6513 65.9081 42.6863 64.3858L30.79 61.7217C19.0971 59.083 11.0137 56.216 6.5399 53.1206C-1.03509 47.9448 -4.82259 39.8511 -4.82259 28.8397C-4.82259 18.7924 -1.16219 10.445 6.15861 3.79757C13.4794 -2.84987 24.2318 -6.1736 38.4159 -6.1736C50.2613 -6.1736 60.3529 -3.02748 68.6904 3.26476C77.0788 9.50626 81.4764 18.5894 81.8831 30.5142H59.3107C58.9039 23.7653 55.9553 18.97 50.4647 16.1283C46.8043 14.2508 42.2542 13.3121 36.8144 13.3121C30.7646 13.3121 25.9349 14.5299 22.3254 16.9656C18.7158 19.4013 16.911 22.8012 16.911 27.1651C16.911 31.1739 18.6904 34.1678 22.2491 36.1468C24.5369 37.4661 29.4174 39.0138 36.8907 40.7899L56.2603 45.4329C64.7504 47.4627 71.1561 50.1775 75.4774 53.5773C82.1881 58.8547 85.5435 66.4916 85.5435 76.4882C85.5435 86.7385 81.6035 95.2634 73.7235 102.063C65.8943 108.812 54.8114 112.187 40.4748 112.187C25.8333 112.187 14.3182 108.863 5.92984 102.215C-2.45858 95.5172 -6.65279 86.3325 -6.65279 74.6614H15.7672Z" fill="white"/>
<path d="M15.7672 74.6614C16.4789 79.7865 17.877 83.6177 19.9614 86.1549C23.7743 90.7726 30.3071 93.0814 39.5597 93.0814C45.1012 93.0814 49.6004 92.4725 53.0575 91.2547C59.6157 88.9204 62.8948 84.5818 62.8948 78.2389C62.8948 74.5346 61.268 71.6675 58.0143 69.6378C54.7606 67.6588 49.6513 65.9081 42.6863 64.3858L30.79 61.7217C19.0971 59.083 11.0137 56.216 6.5399 53.1206C-1.03509 47.9448 -4.82259 39.8511 -4.82259 28.8397C-4.82259 18.7924 -1.16219 10.445 6.15861 3.79757C13.4794 -2.84987 24.2318 -6.1736 38.4159 -6.1736C50.2613 -6.1736 60.3529 -3.02748 68.6904 3.26476C77.0788 9.50626 81.4764 18.5894 81.8831 30.5142H59.3107C58.9039 23.7653 55.9553 18.97 50.4647 16.1283C46.8043 14.2508 42.2542 13.3121 36.8144 13.3121C30.7646 13.3121 25.9349 14.5299 22.3254 16.9656C18.7158 19.4013 16.911 22.8012 16.911 27.1651C16.911 31.1739 18.6904 34.1678 22.2491 36.1468C24.5369 37.4661 29.4174 39.0138 36.8907 40.7899L56.2603 45.4329C64.7504 47.4627 71.1561 50.1775 75.4774 53.5773C82.1881 58.8547 85.5435 66.4916 85.5435 76.4882C85.5435 86.7385 81.6035 95.2634 73.7235 102.063C65.8943 108.812 54.8114 112.187 40.4748 112.187C25.8333 112.187 14.3182 108.863 5.92984 102.215C-2.45858 95.5172 -6.65279 86.3325 -6.65279 74.6614H15.7672Z" stroke="black" stroke-width="7.31034" mask="url(#path-9-outside-8_3_13)"/>
</g>
<defs>
<clipPath id="clip0_3_13">
<rect width="247.333" height="212" rx="17.0575" fill="white"/>
</clipPath>
</defs>
</svg>
