<svg width="58" height="58" viewBox="0 0 58 58" fill="none" xmlns="http://www.w3.org/2000/svg">
<g clip-path="url(#clip0_150_1250)">
<path d="M55.3636 29C55.3636 41.4279 55.3636 47.6419 51.5028 51.5028C47.6419 55.3636 41.4279 55.3636 29 55.3636C16.5721 55.3636 10.3581 55.3636 6.49722 51.5028C2.63635 47.6419 2.63635 41.4279 2.63635 29C2.63635 16.5721 2.63635 10.3581 6.49722 6.49722C10.3581 2.63635 16.5721 2.63635 29 2.63635" stroke="#888888" stroke-width="3.95455" stroke-linecap="round"/>
<path d="M2.63635 30.3179L7.25417 26.2773C9.65661 24.1752 13.2774 24.2958 15.5347 26.5531L26.844 37.8623C28.6558 39.6741 31.5078 39.9212 33.6041 38.4479L34.3903 37.8954C37.4069 35.7753 41.4883 36.021 44.2289 38.4875L52.7273 46.1361" stroke="#888888" stroke-width="3.95455" stroke-linecap="round"/>
<path d="M36.9091 11.8636H46.1364M46.1364 11.8636H55.3637M46.1364 11.8636V21.0909M46.1364 11.8636V2.63635" stroke="#888888" stroke-width="3.95455" stroke-linecap="round"/>
</g>
<defs>
<clipPath id="clip0_150_1250">
<rect width="58" height="58" fill="white"/>
</clipPath>
</defs>
</svg>
