<svg width="18" height="18" viewBox="0 0 18 18" fill="none" xmlns="http://www.w3.org/2000/svg">
<g clip-path="url(#clip0_144_791)">
<path d="M17.7855 9.16838C17.7855 8.43093 17.7257 7.89279 17.5962 7.33472H9.1752V10.6632H14.1181C14.0185 11.4904 13.4804 12.7361 12.2845 13.5732L12.2677 13.6846L14.9303 15.7472L15.1147 15.7657C16.8089 14.201 17.7855 11.899 17.7855 9.16838Z" fill="#4285F4"/>
<path d="M9.17519 17.9382C11.5968 17.9382 13.6298 17.1409 15.1147 15.7657L12.2844 13.5732C11.5271 14.1014 10.5106 14.4701 9.17519 14.4701C6.80338 14.4701 4.79033 12.9055 4.07273 10.743L3.96755 10.7519L1.19899 12.8945L1.16278 12.9952C2.63768 15.9251 5.66725 17.9382 9.17519 17.9382Z" fill="#34A853"/>
<path d="M4.07275 10.743C3.88341 10.1849 3.77383 9.58692 3.77383 8.96908C3.77383 8.35117 3.88341 7.75325 4.06279 7.19519L4.05777 7.07633L1.25451 4.89929L1.1628 4.94292C0.554917 6.15874 0.206116 7.52406 0.206116 8.96908C0.206116 10.4141 0.554917 11.7793 1.1628 12.9952L4.07275 10.743Z" fill="#FBBC05"/>
<path d="M9.17519 3.46802C10.8594 3.46802 11.9954 4.19551 12.6432 4.80346L15.1745 2.33196C13.6199 0.886946 11.5968 0 9.17519 0C5.66725 0 2.63768 2.01305 1.16278 4.94292L4.06277 7.19519C4.79033 5.03265 6.80338 3.46802 9.17519 3.46802Z" fill="#EB4335"/>
</g>
<defs>
<clipPath id="clip0_144_791">
<rect width="18" height="18" fill="white"/>
</clipPath>
</defs>
</svg>
