<svg width="16" height="14" viewBox="0 0 16 14" fill="none" xmlns="http://www.w3.org/2000/svg">
<path d="M2.5606 7.50005H11.2498C11.664 7.50005 11.9998 7.16425 11.9998 6.75005C11.9998 6.33585 11.664 6.00005 11.2498 6.00005H2.5606L3.53029 5.03035C3.82319 4.73745 3.82319 4.2626 3.53029 3.96971C3.23745 3.67681 2.76255 3.67681 2.46965 3.96971L0.21975 6.21965C0.2022 6.2372 0.1856 6.2556 0.1699 6.2748C0.16305 6.28315 0.1571 6.292 0.15065 6.30055C0.1424 6.31155 0.1339 6.3223 0.12625 6.33375C0.11925 6.3442 0.1132 6.35505 0.1068 6.36575C0.10065 6.37605 0.0941999 6.3861 0.0885499 6.3967C0.0826499 6.4077 0.0776999 6.419 0.0723999 6.4302C0.0671999 6.44115 0.0617499 6.45195 0.0570999 6.46315C0.0525999 6.4741 0.0488999 6.48525 0.0449499 6.49635C0.0405999 6.50835 0.0359999 6.5202 0.0323 6.53245C0.02895 6.54355 0.0265 6.5548 0.0237 6.56605C0.02055 6.5785 0.01705 6.5909 0.01455 6.6036C0.012 6.61655 0.01045 6.62965 0.00859999 6.6427C0.00699999 6.65385 0.00484999 6.66485 0.00374999 6.67615C0.00135 6.70035 9.99999e-05 6.7247 4.99999e-05 6.749C4.99999e-05 6.74935 0 6.74975 0 6.7501C0 6.75045 4.99999e-05 6.75085 4.99999e-05 6.7512C9.99999e-05 6.77555 0.00135 6.79985 0.00374999 6.8241C0.00484999 6.83525 0.00694999 6.8461 0.00849999 6.85715C0.0104 6.87035 0.01195 6.88355 0.01455 6.89665C0.01705 6.90925 0.0205 6.92145 0.02365 6.9338C0.0265 6.94515 0.029 6.9566 0.0324 6.96785C0.0360499 6.9799 0.0405999 6.99155 0.0447999 7.00335C0.0488499 7.01465 0.0525499 7.026 0.0571499 7.0371C0.0616999 7.0481 0.0670499 7.05865 0.0721499 7.0694C0.0775499 7.08085 0.0826499 7.0924 0.0886499 7.10365C0.0941499 7.1139 0.1004 7.12365 0.10635 7.1336C0.1129 7.14465 0.11915 7.1558 0.12635 7.16655C0.13365 7.1775 0.1418 7.18775 0.14965 7.1983C0.15645 7.20735 0.16275 7.2167 0.17 7.2255C0.18495 7.2437 0.2008 7.26115 0.21735 7.2779C0.21815 7.2787 0.2188 7.2796 0.2196 7.2804L2.4696 9.53045C2.6161 9.6769 2.808 9.75015 2.99995 9.75015C3.19185 9.7501 3.38385 9.6769 3.53024 9.5305C3.82314 9.2376 3.82314 8.76275 3.53029 8.46985L2.5606 7.50005Z" fill="#912F40"/>
<path d="M15.25 0H5.75C5.3358 0 5 0.3358 5 0.749999V3.75C5 4.16419 5.3358 4.49999 5.75 4.49999C6.1642 4.49999 6.5 4.16419 6.5 3.75V1.5H14.5V12H6.5V9.74999C6.5 9.33579 6.1642 8.99999 5.75 8.99999C5.3358 8.99999 5 9.33579 5 9.74999V12.75C5 13.1642 5.3358 13.5 5.75 13.5H15.25C15.6642 13.5 16 13.1642 16 12.75V0.749999C16 0.3358 15.6642 0 15.25 0Z" fill="#912F40"/>
</svg>
