<svg width="22" height="12" viewBox="0 0 22 12" fill="none" xmlns="http://www.w3.org/2000/svg">
<path fill-rule="evenodd" clip-rule="evenodd" d="M21.2954 0.310643C21.6761 0.473809 21.8525 0.914719 21.6893 1.29544L21 1C21.6893 1.29544 21.6894 1.29526 21.6893 1.29544L21.6886 1.29712L21.6875 1.29961L21.6843 1.30696L21.6737 1.33104C21.6647 1.35118 21.6519 1.37939 21.6353 1.41508C21.602 1.48643 21.5533 1.58775 21.4889 1.71416C21.36 1.9668 21.1676 2.32068 20.9085 2.73647C20.4829 3.41951 19.8724 4.27766 19.062 5.13018L20.0303 6.09851C20.3232 6.3914 20.3232 6.86628 20.0303 7.15917C19.7374 7.45206 19.2625 7.45206 18.9697 7.15917L17.9691 6.15859C17.3094 6.71128 16.5529 7.23003 15.6951 7.65623L16.6286 9.09096C16.8545 9.43815 16.7562 9.90273 16.409 10.1286C16.0618 10.3545 15.5973 10.2562 15.3713 9.90904L14.2822 8.23515C13.5028 8.48966 12.659 8.66262 11.75 8.72462V10.5C11.75 10.9142 11.4142 11.25 11 11.25C10.5858 11.25 10.25 10.9142 10.25 10.5V8.72462C9.36895 8.66453 8.54916 8.50021 7.78989 8.2584L6.71581 9.90911C6.48991 10.2563 6.02532 10.3546 5.67813 10.1287C5.33095 9.9028 5.23263 9.43822 5.45853 9.09103L6.37095 7.68877C5.50657 7.26666 4.74387 6.75017 4.07848 6.19826L3.1175 7.15924C2.82461 7.45213 2.34974 7.45213 2.05684 7.15924C1.76395 6.86634 1.76395 6.39147 2.05684 6.09858L2.98061 5.17481C2.15605 4.31512 1.53531 3.44656 1.10283 2.75467C0.839905 2.33404 0.644656 1.97565 0.513943 1.71969C0.448542 1.59163 0.399165 1.48895 0.365431 1.41664C0.348561 1.38048 0.335591 1.35188 0.326476 1.33148L0.315682 1.30709L0.312439 1.29965L0.311354 1.29714L0.310946 1.29619C0.310869 1.29601 0.310626 1.29544 0.999985 1L0.310946 1.29619C0.147779 0.915463 0.323823 0.473809 0.704545 0.310643C1.08495 0.14761 1.52545 0.32355 1.68894 0.703623C1.689 0.703754 1.68888 0.703491 1.68894 0.703623L1.6899 0.705813L1.69597 0.719527C1.70186 0.732722 1.71146 0.753909 1.72479 0.782481C1.75145 0.839641 1.79302 0.926251 1.84982 1.03747C1.96351 1.2601 2.13768 1.58027 2.37479 1.9596C2.85039 2.72048 3.57163 3.70709 4.55567 4.62159C5.42157 5.42631 6.48265 6.16756 7.75171 6.65581C8.7062 7.02303 9.78543 7.25 11 7.25C12.2417 7.25 13.3421 7.01276 14.3125 6.63082C15.5739 6.13433 16.6277 5.38825 17.4867 4.58199C18.4562 3.67197 19.1669 2.69516 19.6354 1.94321C19.869 1.56831 20.0406 1.25227 20.1526 1.03267C20.2086 0.922955 20.2495 0.83757 20.2758 0.781247C20.2889 0.753094 20.2983 0.732228 20.3041 0.719242L20.3101 0.705759L20.3106 0.704562C20.3107 0.704464 20.3106 0.70466 20.3106 0.704562M21.2954 0.310643C20.9148 0.147518 20.4739 0.324043 20.3106 0.704562ZM1.68894 0.703623C1.689 0.703754 1.68888 0.703491 1.68894 0.703623Z" fill="#1C274C"/>
</svg>
