<svg width="21" height="23" viewBox="0 0 21 23" fill="none" xmlns="http://www.w3.org/2000/svg">
<path d="M10.0282 23H10.9718C14.2183 23 15.8415 23 16.897 21.9577C17.9524 20.9153 18.0604 19.2056 18.2763 15.7861L18.5875 10.8588C18.7047 9.00344 18.7632 8.07574 18.2338 7.48787C17.7043 6.9 16.8102 6.9 15.0219 6.9H5.97805C4.18981 6.9 3.29569 6.9 2.76623 7.48787C2.23676 8.07574 2.29535 9.00344 2.41252 10.8588L2.72369 15.7861C2.93965 19.2056 3.04762 20.9153 4.10304 21.9577C5.15845 23 6.7817 23 10.0282 23Z" fill="#912F40"/>
<path d="M0 4.79168C0 4.26241 0.402944 3.83335 0.9 3.83335L4.00828 3.83284C4.62586 3.81617 5.17069 3.39804 5.38083 2.77945C5.38635 2.76319 5.39271 2.74312 5.4155 2.67033L5.54943 2.24242C5.63138 1.98005 5.70279 1.75148 5.8027 1.54717C6.19744 0.740014 6.92775 0.179518 7.77171 0.0360175C7.98534 -0.000305789 8.21156 -0.000152177 8.47124 2.42116e-05H12.529C12.7886 -0.000152177 13.0149 -0.000305789 13.2285 0.0360175C14.0724 0.179518 14.8028 0.740014 15.1975 1.54717C15.2974 1.75148 15.3688 1.98005 15.4508 2.24242L15.5847 2.67033C15.6075 2.74312 15.6138 2.76319 15.6194 2.77945C15.8295 3.39804 16.4824 3.81668 17.1 3.83335H20.1C20.5971 3.83335 21 4.26241 21 4.79168C21 5.32094 20.5971 5.75 20.1 5.75H0.9C0.402944 5.75 0 5.32094 0 4.79168Z" fill="#912F40"/>
</svg>
